<?xml version="1.0" encoding="utf-8"?>
<!-- Generator: Adobe Illustrator 22.1.0, SVG Export Plug-In . SVG Version: 6.00 Build 0)  -->
<svg version="1.1" id="Layer_1" xmlns="http://www.w3.org/2000/svg" xmlns:xlink="http://www.w3.org/1999/xlink" x="0px" y="0px"
	 viewBox="0 0 1024 1024" style="enable-background:new 0 0 1024 1024;" xml:space="preserve">
<style type="text/css">
	.st0{fill:url(#SVGID_1_);}
	.st1{opacity:0.2;}
	.st2{fill:#EA996D;}
	.st3{fill:#EB8B5E;}
	.st4{fill:#0F1415;}
	.st5{fill:#7D3D2C;}
	.st6{fill:#3D0F08;}
	.st7{fill:url(#SVGID_2_);}
	.st8{fill:#F7C49E;}
	.st9{fill:#EA956A;}
	.st10{fill:url(#SVGID_3_);}
	.st11{fill:#8C0C00;}
	.st12{fill:#CCCCCC;}
	.st13{fill:#FFFFFF;}
	.st14{fill:url(#SVGID_4_);}
	.st15{fill:url(#SVGID_5_);}
	.st16{fill:url(#SVGID_6_);}
	.st17{fill:#FF7858;}
	.st18{fill:url(#SVGID_7_);}
	.st19{fill:url(#SVGID_8_);}
</style>
<g>
	<g>
		<g>
			<linearGradient id="SVGID_1_" gradientUnits="userSpaceOnUse" x1="256" y1="1024" x2="256" y2="512">
				<stop  offset="0.1" style="stop-color:#F2A87E"/>
				<stop  offset="0.5" style="stop-color:#F6C09C"/>
				<stop  offset="0.9" style="stop-color:#F8CCAB"/>
			</linearGradient>
			<rect y="512" class="st0" width="512" height="512"/>
		</g>
		<g class="st1">
			<image style="overflow:visible;" width="376" height="294" xlink:href="9C35071A.png"  transform="matrix(1 0 0 1 66 658)">
			</image>
		</g>
		<g>
			<g>
				<g>
					<path class="st2" d="M284.2,733.2l4.5,12.8c2.5,6.9,10.6,10.3,17.5,7.2l51.1-22.9c2.7-1.2,5.7-1.5,8.5-0.8l33.3,7.7
						c3.9,0.9,6.5-3.9,3.4-6.4l-36.2-29.4c-3.8-3.1-9-3.8-13.5-1.9l-65.5,27.1C284.6,727.7,283.3,730.6,284.2,733.2z"/>
					<path class="st2" d="M223.2,733.2l-4.5,12.8c-2.5,6.9-10.6,10.3-17.5,7.2l-51.1-22.9c-2.7-1.2-5.7-1.5-8.5-0.8l-33.3,7.7
						c-3.9,0.9-6.5-3.9-3.4-6.4l36.2-29.4c3.8-3.1,9-3.8,13.5-1.9l65.5,27.1C222.8,727.7,224.1,730.6,223.2,733.2z"/>
					<path class="st2" d="M279.9,727.8c0.5,2.4,0.8,4.4,1.1,6.4c0.3,2,0.7,3.9,1.1,5.7c0.4,1.8,1,3.7,1.6,5.6
						c0.6,1.9,1.3,3.9,1.9,6.2l0,0c0.2,0.7-0.2,1.4-1,1.6c-0.3,0.1-0.6,0-0.9-0.1c-2.3-1-4.2-2.7-5.8-4.7c-1.5-2-2.7-4.4-3.3-6.9
						c-0.6-2.5-0.7-5.1-0.2-7.6c0.5-2.5,1.4-4.9,3-6.9c0.5-0.6,1.3-0.7,1.9-0.2C279.6,727.2,279.8,727.4,279.9,727.8L279.9,727.8z"
						/>
					<path class="st2" d="M230.3,733.5c-0.6,2.1-0.9,3.9-1.3,5.7c-0.4,1.8-0.8,3.4-1.3,5c-0.5,1.6-1.1,3.2-1.7,4.9
						c-0.6,1.7-1.4,3.4-2,5.5l0,0c-0.2,0.6,0.1,1.3,0.8,1.5c0.3,0.1,0.5,0.1,0.8,0c2.1-0.8,3.9-2.2,5.4-3.9c1.5-1.7,2.6-3.8,3.3-6
						c0.7-2.2,0.9-4.5,0.6-6.8c-0.3-2.2-1-4.4-2.3-6.3c-0.4-0.5-1.1-0.7-1.7-0.3C230.5,733,230.4,733.2,230.3,733.5L230.3,733.5z"/>
					<path class="st2" d="M267.8,742.1c0.9,0.8,1.5,1.6,1.9,2.5c0.5,0.9,0.8,1.8,1,2.7c0.2,0.9,0.3,1.9,0.3,2.9c0,1-0.2,2-0.6,3.1
						c-0.1,0.3-0.6,0.6-1.1,0.5c-0.2,0-0.3-0.1-0.4-0.2c-0.9-0.8-1.5-1.6-1.9-2.5c-0.5-0.9-0.8-1.8-1-2.7c-0.2-0.9-0.3-1.9-0.3-2.9
						c0-1,0.2-2,0.6-3.1c0.1-0.3,0.6-0.6,1.1-0.5C267.5,741.9,267.7,742,267.8,742.1z"/>
				</g>
				<g>
					<path class="st3" d="M232,865.2c-0.9-2.7-0.8-6,0.6-9c1.4-3,3.9-5.4,6.5-7c2.6-1.6,5.5-2.5,8.2-3.1c0.7-0.1,1.4-0.2,2.1-0.3
						l2.1-0.2l2-0.1l2,0c5.3,0.2,10.4,1.4,15.2,3.3c4.7,1.9,9.1,4.5,12.9,8c0.9,0.8,0.9,2.1,0.1,3c-0.4,0.5-1,0.7-1.6,0.7l-0.1,0
						c-5-0.2-9.5-0.9-14-1.4c-4.4-0.5-8.8-1-12.9-1.1c-4.1-0.2-8.1,0-11.4,0.9c-0.4,0.1-0.8,0.2-1.2,0.3c-0.4,0.1-0.8,0.3-1.1,0.4
						c-0.7,0.3-1.4,0.7-2,1.2c-1.3,0.9-2.4,2.4-3.4,4.4l-0.1,0.2c-0.5,1.1-1.8,1.5-2.8,1C232.6,866.2,232.2,865.7,232,865.2z"/>
					<g>
						<path class="st4" d="M149.3,755.8c1.7,4.2,4.6,7.8,8.4,10.7c0.5,0.3,0.9,0.7,1.5,1l1.6,0.9c1,0.7,2.3,1.1,3.4,1.5
							c0.3,0.1,0.6,0.2,0.9,0.3l0.9,0.2l1.9,0.4c1.3,0.2,2.6,0.3,3.9,0.4c1.3-0.1,2.6-0.1,3.9-0.4l1.9-0.4l0.9-0.2
							c0.3-0.1,0.6-0.2,0.9-0.3c1.2-0.5,2.4-0.9,3.4-1.5c0.5-0.3,1.1-0.6,1.6-0.9c0.5-0.3,1-0.7,1.5-1c3.8-2.9,6.7-6.5,8.4-10.7
							c0.5-1.1-0.1-2.4-1.2-2.8c-0.5-0.2-1.1-0.2-1.6,0l-0.1,0c-4,1.5-7.5,3.2-10.7,4.2c-3.3,1.1-6.2,1.7-9,1.7
							c-2.8,0-5.8-0.6-9-1.7c-3.3-1.1-6.7-2.7-10.7-4.2l-0.1,0c-1.1-0.4-2.4,0.1-2.8,1.3C149,754.8,149.1,755.3,149.3,755.8z"/>
					</g>
					<g>
						<path class="st4" d="M317.4,755.8c1.7,4.2,4.6,7.8,8.4,10.7c0.5,0.3,0.9,0.7,1.5,1l1.6,0.9c1,0.7,2.3,1.1,3.4,1.5
							c0.3,0.1,0.6,0.2,0.9,0.3l0.9,0.2l1.9,0.4c1.3,0.2,2.6,0.3,3.9,0.4c1.3-0.1,2.6-0.1,3.9-0.4l1.9-0.4l0.9-0.2
							c0.3-0.1,0.6-0.2,0.9-0.3c1.2-0.5,2.4-0.9,3.4-1.5c0.5-0.3,1.1-0.6,1.6-0.9c0.5-0.3,1-0.7,1.5-1c3.8-2.9,6.7-6.5,8.4-10.7
							c0.5-1.1-0.1-2.4-1.2-2.8c-0.5-0.2-1.1-0.2-1.6,0l-0.1,0c-4,1.5-7.5,3.2-10.7,4.2c-3.3,1.1-6.2,1.7-9,1.7
							c-2.8,0-5.8-0.6-9-1.7c-3.3-1.1-6.7-2.7-10.7-4.2l-0.1,0c-1.1-0.4-2.4,0.1-2.8,1.3C317.2,754.8,317.3,755.3,317.4,755.8z"/>
					</g>
				</g>
				<g>
					<g>
						<path class="st5" d="M289.6,727.1l4,12.9c2.2,7,9.9,10.6,16.7,7.8l50.1-21.2c2.6-1.1,5.5-1.3,8.3-0.5l32,8.8
							c3.8,1,6.4-3.7,3.5-6.3l-34.1-30.6c-3.5-3.2-8.6-4.1-13-2.4l-64.1,25C290.1,721.5,288.7,724.4,289.6,727.1z"/>
						<path class="st6" d="M401.7,735c-0.4,0-0.7,0-1.1-0.1l-32-8.8c-2.7-0.8-5.6-0.6-8.3,0.5l-50.1,21.2
							c-6.8,2.9-14.5-0.7-16.7-7.8l-1-3.3c3.5,3.9,9.3,5.4,14.4,3.2l51.7-21.9c2.7-1.1,5.7-1.3,8.5-0.6L401.7,735z"/>
					</g>
					<g>
						<path class="st5" d="M217.8,727.1l-4,12.9c-2.2,7-9.9,10.6-16.7,7.8l-50.1-21.2c-2.6-1.1-5.5-1.3-8.3-0.5l-32,8.8
							c-3.8,1-6.4-3.7-3.5-6.3l34.1-30.6c3.5-3.2,8.6-4.1,13-2.4l64.1,25C217.3,721.5,218.7,724.4,217.8,727.1z"/>
						<path class="st6" d="M105.7,735c0.4,0,0.7,0,1.1-0.1l32-8.8c2.7-0.8,5.6-0.6,8.3,0.5l50.1,21.2c6.8,2.9,14.5-0.7,16.7-7.8
							l1-3.3c-3.5,3.9-9.3,5.4-14.4,3.2L148.8,718c-2.7-1.1-5.7-1.3-8.5-0.6L105.7,735z"/>
					</g>
				</g>
			</g>
			<path class="st2" d="M223.5,806.5c0,0,9,33.1,32.5,29.9s24-24.2,24-24.2S254.3,826.6,223.5,806.5z"/>
			<path class="st2" d="M255.9,908.2c2.4-0.2,4.5-0.1,6.5-0.2c2,0,3.9-0.1,5.8-0.3c1.9-0.2,3.8-0.4,5.8-0.8c2-0.3,4.1-0.8,6.5-1l0,0
				c0.7-0.1,1.4,0.5,1.5,1.2c0,0.3,0,0.6-0.2,0.9c-1.4,2.2-3.3,3.8-5.5,5c-2.2,1.2-4.7,2-7.3,2.3c-2.6,0.2-5.2-0.1-7.6-0.9
				c-2.4-0.8-4.6-2.1-6.4-3.9c-0.5-0.5-0.5-1.4,0.1-1.9C255.3,908.3,255.6,908.2,255.9,908.2L255.9,908.2z"/>
			<linearGradient id="SVGID_2_" gradientUnits="userSpaceOnUse" x1="252.2551" y1="818.9653" x2="252.2551" y2="727.2691">
				<stop  offset="0" style="stop-color:#E57447"/>
				<stop  offset="0.9948" style="stop-color:#F2A87E"/>
			</linearGradient>
			<path class="st7" d="M284,810.6c-0.2-0.7-1-1.1-1.7-0.8l-0.1,0l-3.6,1.3l-1.8,0.6l-0.9,0.3c-0.3,0.1-0.6,0.2-0.9,0.2l-3.7,0.9
				c-0.6,0.1-1.2,0.3-1.8,0.4l-1.9,0.3c-1.2,0.2-2.5,0.4-3.7,0.6l-3.8,0.2c-1.2,0.1-2.5,0.1-3.8,0c-1.2-0.1-2.5,0-3.7-0.2l-3.7-0.4
				l-3.7-0.7c-2.4-0.6-4.8-1.3-7.1-2.2c-2.3-0.9-4.6-1.9-6.7-3.1c-1.1-0.6-2.1-1.2-3.1-1.9c-0.5-0.3-0.9-0.6-1.3-0.9l20.6-76.4
				c0.2-0.7-0.2-1.4-0.9-1.6c-0.7-0.2-1.5,0.2-1.7,0.9l-24.4,77.5c-0.3,1.1,0,2.4,0.9,3.1l0,0l0,0c0.4,0.3,0.6,0.5,0.9,0.7
				c0.3,0.2,0.6,0.4,0.9,0.6c0.6,0.4,1.2,0.7,1.8,1.1c1.2,0.7,2.4,1.3,3.6,1.9c2.5,1.1,5,2.2,7.6,3c2.6,0.8,5.2,1.5,7.9,2l4,0.6
				l4,0.3c1.3,0.1,2.7,0,4,0c1.3,0,2.7,0,4-0.2l4-0.5c1.3-0.2,2.6-0.5,3.9-0.8l2-0.4c0.7-0.1,1.3-0.4,1.9-0.6l3.8-1.2
				c0.3-0.1,0.6-0.2,0.9-0.3l0.9-0.4l1.8-0.8l3.7-1.5C283.9,812,284.2,811.3,284,810.6z"/>
		</g>
		<g>
			<polygon class="st8" points="195.7,684.7 135.9,742 162,738.7 			"/>
			<polygon class="st9" points="195.7,684.7 143.5,722.7 135.9,742 			"/>
		</g>
	</g>
</g>
<g>
	<g>
		<linearGradient id="SVGID_3_" gradientUnits="userSpaceOnUse" x1="256" y1="512" x2="256" y2="0">
			<stop  offset="0.1" style="stop-color:#F2A87E"/>
			<stop  offset="0.5" style="stop-color:#F6C09C"/>
			<stop  offset="0.9" style="stop-color:#F8CCAB"/>
		</linearGradient>
		<rect class="st10" width="512" height="512"/>
	</g>
	<g class="st1">
		<image style="overflow:visible;" width="376" height="314" xlink:href="9C35071E.png"  transform="matrix(1 0 0 1 66 126)">
		</image>
	</g>
	<g>
		<g>
			<g>
				<path class="st2" d="M284.2,211.2l4.5,12.8c2.5,6.9,10.6,10.3,17.5,7.2l51.1-22.9c2.7-1.2,5.7-1.5,8.5-0.8l33.3,7.7
					c3.9,0.9,6.5-3.9,3.4-6.4l-36.2-29.4c-3.8-3.1-9-3.8-13.5-1.9l-65.5,27.1C284.6,205.7,283.3,208.6,284.2,211.2z"/>
				<path class="st2" d="M223.2,211.2l-4.5,12.8c-2.5,6.9-10.6,10.3-17.5,7.2l-51.1-22.9c-2.7-1.2-5.7-1.5-8.5-0.8l-33.3,7.7
					c-3.9,0.9-6.5-3.9-3.4-6.4l36.2-29.4c3.8-3.1,9-3.8,13.5-1.9l65.5,27.1C222.8,205.7,224.1,208.6,223.2,211.2z"/>
				<path class="st2" d="M279.9,205.8c0.5,2.4,0.8,4.4,1.1,6.4c0.3,2,0.7,3.9,1.1,5.7c0.4,1.8,1,3.7,1.6,5.6
					c0.6,1.9,1.3,3.9,1.9,6.2l0,0c0.2,0.7-0.2,1.4-1,1.6c-0.3,0.1-0.6,0-0.9-0.1c-2.3-1-4.2-2.7-5.8-4.7c-1.5-2-2.7-4.4-3.3-6.9
					c-0.6-2.5-0.7-5.1-0.2-7.6c0.5-2.5,1.4-4.9,3-6.9c0.5-0.6,1.3-0.7,1.9-0.2C279.6,205.2,279.8,205.4,279.9,205.8L279.9,205.8z"/>
				<path class="st2" d="M230.3,211.5c-0.6,2.1-0.9,3.9-1.3,5.7c-0.4,1.8-0.8,3.4-1.3,5c-0.5,1.6-1.1,3.2-1.7,4.9
					c-0.6,1.7-1.4,3.4-2,5.5l0,0c-0.2,0.6,0.1,1.3,0.8,1.5c0.3,0.1,0.5,0.1,0.8,0c2.1-0.8,3.9-2.2,5.4-3.9c1.5-1.7,2.6-3.8,3.3-6
					c0.7-2.2,0.9-4.5,0.6-6.8c-0.3-2.2-1-4.4-2.3-6.3c-0.4-0.5-1.1-0.7-1.7-0.3C230.5,211,230.4,211.2,230.3,211.5L230.3,211.5z"/>
				<path class="st2" d="M267.8,220.1c0.9,0.8,1.5,1.6,1.9,2.5c0.5,0.9,0.8,1.8,1,2.7c0.2,0.9,0.3,1.9,0.3,2.9c0,1-0.2,2-0.6,3.1
					c-0.1,0.3-0.6,0.6-1.1,0.5c-0.2,0-0.3-0.1-0.4-0.2c-0.9-0.8-1.5-1.6-1.9-2.5c-0.5-0.9-0.8-1.8-1-2.7c-0.2-0.9-0.3-1.9-0.3-2.9
					c0-1,0.2-2,0.6-3.1c0.1-0.3,0.6-0.6,1.1-0.5C267.5,219.9,267.7,220,267.8,220.1z"/>
			</g>
			<g>
				<g>
					<g>
						<ellipse class="st4" cx="339.6" cy="249" rx="21.4" ry="33"/>
					</g>
					<g>
						<ellipse class="st4" cx="172.4" cy="249" rx="21.4" ry="33"/>
					</g>
				</g>
				<g>
					<g>
						<path class="st11" d="M180.1,338.9c-0.1,2.1-0.3,4.1-0.4,6.2c-1.2,15.2,8.1,28.9,23.5,32.5c2.5,0.6,5.2,0.9,8,0.9
							c0.3,0,0.6,0,0.9,0c32.7-0.9,66.5-5.6,100.5-14.5c3.2-0.8,6.3-2.1,9.2-3.6c0,0,0,0,0,0c16-8.4,25.8-26.2,22.4-41.7
							c-0.4-2.1-0.9-4.2-1.4-6.3C287.4,333.2,231.8,341.3,180.1,338.9z"/>
						<g>
							<g>
								<g>
									<path class="st12" d="M199.8,355.5c-0.2,3.5-0.4,6.9-0.7,10.4c-0.3,4.5,1.2,8.7,4,11.7c2.5,0.6,5.2,0.9,8,0.9
										c0.3,0,0.6,0,0.9,0c32.7-0.9,66.5-5.6,100.5-14.5c3.2-0.8,6.3-2.1,9.2-3.6c0,0,0,0,0,0c0.2-0.3,0.4-0.6,0.6-0.9
										c0.2-0.3,0.3-0.5,0.5-0.8c0.2-0.3,0.3-0.5,0.4-0.8c0.1-0.3,0.3-0.5,0.4-0.8c0.1-0.3,0.2-0.5,0.4-0.8
										c0.1-0.3,0.2-0.5,0.3-0.8c0.1-0.3,0.2-0.5,0.3-0.8c0.1-0.3,0.2-0.5,0.3-0.8c0.2-0.6,0.3-1.1,0.4-1.7
										c0.3-1.8,0.4-3.5,0.2-5.3c-0.5-3.6-1-7.1-1.5-10.6C281.8,349.3,239.9,355.4,199.8,355.5z"/>
								</g>
								<path class="st13" d="M206.2,370.2c0.7,3.3,2.4,6.1,4.9,8.3c0.3,0,0.6,0,0.9,0c32.7-0.9,66.5-5.6,100.5-14.5
									c3.2-0.8,6.3-2.1,9.2-3.6c0,0,0,0,0,0c0.2-0.3,0.4-0.6,0.6-0.9c0.2-0.3,0.3-0.5,0.5-0.8c0.2-0.3,0.3-0.5,0.4-0.8
									c0.1-0.3,0.3-0.5,0.4-0.8c0.1-0.3,0.2-0.5,0.4-0.8c0.1-0.3,0.2-0.5,0.3-0.8c0.1-0.3,0.2-0.5,0.3-0.8
									c0.1-0.3,0.2-0.5,0.3-0.8c0.2-0.6,0.3-1.1,0.4-1.7c0.2-1.1,0.3-2.3,0.3-3.4c-2.8,2.7-6.2,4.8-10.1,5.9
									c-36.1,9.9-71.9,15-106.6,15.7C208,370.4,207.1,370.3,206.2,370.2z"/>
							</g>
							<path class="st13" d="M209.1,366.6c34.4-0.8,70.1-5.9,105.9-15.8c10.6-2.9,18-13.6,16.2-23.1c-0.6-3.5-1.3-7-2-10.5
								c-46.4,15.7-92.7,22.6-136.5,22c-0.1,3.4-0.3,6.9-0.5,10.3C191.6,359,199,366.8,209.1,366.6z"/>
							<path class="st12" d="M192.7,339.3c-0.1,1.7-0.1,3.4-0.2,5.1c44.2,0.7,91-6.2,137.7-22c-0.3-1.7-0.7-3.4-1-5.1
								C282.9,333,236.5,339.9,192.7,339.3z"/>
						</g>
					</g>
					<path class="st3" d="M180.1,338.9c51.7,2.4,107.3-5.7,162.6-26.5c0.5,2.1,0.9,4.2,1.4,6.3c3.4,15.5-6.4,33.3-22.4,41.7
						c0,0,0,0,0,0c-2.9,1.5-6,2.7-9.2,3.6c-34,8.9-67.8,13.6-100.5,14.5c-0.3,0-0.6,0-0.9,0c-2.8,0-5.4-0.3-8-0.9
						c-15.3-3.6-24.6-17.3-23.5-32.5C179.8,343.1,180,341,180.1,338.9 M180.2,335.9c-1.7-0.1-3.1,1.2-3.2,2.8
						c-0.1,2.1-0.3,4.1-0.4,6.2c-1.3,16.3,8.2,31.5,25.4,35.6c2.8,0.7,5.7,1,8.7,1c0.3,0,0.7,0,1,0c32.9-0.9,66.8-5.5,101-14.4
						c3.4-0.9,6.8-2.2,10-3.9c0.1,0,0.2-0.1,0.3-0.1c17.9-9.5,28-29.1,24.3-45.6c-0.5-2.1-0.9-4.2-1.4-6.3c-0.4-1.7-2.2-2.5-3.9-1.8
						C287,330.2,231.7,338.3,180.2,335.9L180.2,335.9z"/>
				</g>
			</g>
		</g>
		<g>
			<g>
				<path class="st5" d="M289.6,205.1l4,12.9c2.2,7,9.9,10.6,16.7,7.8l50.1-21.2c2.6-1.1,5.5-1.3,8.3-0.5l32,8.8
					c3.8,1,6.4-3.7,3.5-6.3l-34.1-30.6c-3.5-3.2-8.6-4.1-13-2.4l-64.1,25C290.1,199.5,288.7,202.4,289.6,205.1z"/>
				<path class="st6" d="M401.7,213c-0.4,0-0.7,0-1.1-0.1l-32-8.8c-2.7-0.8-5.6-0.6-8.3,0.5l-50.1,21.2c-6.8,2.9-14.5-0.7-16.7-7.8
					l-1-3.3c3.5,3.9,9.3,5.4,14.4,3.2l51.7-21.9c2.7-1.1,5.7-1.3,8.5-0.6L401.7,213z"/>
			</g>
			<g>
				<path class="st5" d="M217.8,205.1l-4,12.9c-2.2,7-9.9,10.6-16.7,7.8l-50.1-21.2c-2.6-1.1-5.5-1.3-8.3-0.5l-32,8.8
					c-3.8,1-6.4-3.7-3.5-6.3l34.1-30.6c3.5-3.2,8.6-4.1,13-2.4l64.1,25C217.3,199.5,218.7,202.4,217.8,205.1z"/>
				<path class="st6" d="M105.7,213c0.4,0,0.7,0,1.1-0.1l32-8.8c2.7-0.8,5.6-0.6,8.3,0.5l50.1,21.2c6.8,2.9,14.5-0.7,16.7-7.8l1-3.3
					c-3.5,3.9-9.3,5.4-14.4,3.2L148.8,196c-2.7-1.1-5.7-1.3-8.5-0.6L105.7,213z"/>
			</g>
		</g>
		<g>
			<polygon class="st8" points="195.7,162.7 135.9,220 162,216.7 			"/>
			<polygon class="st9" points="195.7,162.7 143.5,200.7 135.9,220 			"/>
		</g>
		<path class="st2" d="M223.5,294.5c0,0,9,33.1,32.5,29.9s24-24.2,24-24.2S254.3,314.6,223.5,294.5z"/>
		<path class="st2" d="M255.9,396.2c2.4-0.2,4.5-0.1,6.5-0.2c2,0,3.9-0.1,5.8-0.3c1.9-0.2,3.8-0.4,5.8-0.8c2-0.3,4.1-0.8,6.5-1l0,0
			c0.7-0.1,1.4,0.5,1.5,1.2c0,0.3,0,0.6-0.2,0.9c-1.4,2.2-3.3,3.8-5.5,5c-2.2,1.2-4.7,2-7.3,2.3c-2.6,0.2-5.2-0.1-7.6-0.9
			c-2.4-0.8-4.6-2.1-6.4-3.9c-0.5-0.5-0.5-1.4,0.1-1.9C255.3,396.3,255.6,396.2,255.9,396.2L255.9,396.2z"/>
		<linearGradient id="SVGID_4_" gradientUnits="userSpaceOnUse" x1="252.2551" y1="306.9654" x2="252.2551" y2="215.2691">
			<stop  offset="0" style="stop-color:#E57447"/>
			<stop  offset="0.9948" style="stop-color:#F2A87E"/>
		</linearGradient>
		<path class="st14" d="M284,298.6c-0.2-0.7-1-1.1-1.7-0.8l-0.1,0l-3.6,1.3l-1.8,0.6l-0.9,0.3c-0.3,0.1-0.6,0.2-0.9,0.2l-3.7,0.9
			c-0.6,0.1-1.2,0.3-1.8,0.4l-1.9,0.3c-1.2,0.2-2.5,0.4-3.7,0.6l-3.8,0.2c-1.2,0.1-2.5,0.1-3.8,0c-1.2-0.1-2.5,0-3.7-0.2l-3.7-0.4
			l-3.7-0.7c-2.4-0.6-4.8-1.3-7.1-2.2c-2.3-0.9-4.6-1.9-6.7-3.1c-1.1-0.6-2.1-1.2-3.1-1.9c-0.5-0.3-0.9-0.6-1.3-0.9l20.6-76.4
			c0.2-0.7-0.2-1.4-0.9-1.6c-0.7-0.2-1.5,0.2-1.7,0.9l-24.4,77.5c-0.3,1.1,0,2.4,0.9,3.1l0,0l0,0c0.4,0.3,0.6,0.5,0.9,0.7
			c0.3,0.2,0.6,0.4,0.9,0.6c0.6,0.4,1.2,0.7,1.8,1.1c1.2,0.7,2.4,1.3,3.6,1.9c2.5,1.1,5,2.2,7.6,3c2.6,0.8,5.2,1.5,7.9,2l4,0.6
			l4,0.3c1.3,0.1,2.7,0,4,0c1.3,0,2.7,0,4-0.2l4-0.5c1.3-0.2,2.6-0.5,3.9-0.8l2-0.4c0.7-0.1,1.3-0.4,1.9-0.6l3.8-1.2
			c0.3-0.1,0.6-0.2,0.9-0.3l0.9-0.4l1.8-0.8l3.7-1.5C283.9,300,284.2,299.3,284,298.6z"/>
	</g>
</g>
<g>
	<g>
		<linearGradient id="SVGID_5_" gradientUnits="userSpaceOnUse" x1="768" y1="512" x2="768" y2="0">
			<stop  offset="0.1" style="stop-color:#F2A87E"/>
			<stop  offset="0.5" style="stop-color:#F6C09C"/>
			<stop  offset="0.9" style="stop-color:#F8CCAB"/>
		</linearGradient>
		<rect x="512" class="st15" width="512" height="512"/>
	</g>
	<g class="st1">
		<image style="overflow:visible;" width="379" height="342" xlink:href="9C350719.png"  transform="matrix(1 0 0 1 577 114)">
		</image>
	</g>
	<g>
		<g>
			<path class="st2" d="M791.9,191.1c0.5,2.4,0.8,4.4,1.1,6.4c0.3,2,0.7,3.9,1.1,5.7c0.4,1.8,1,3.7,1.6,5.6c0.6,1.9,1.3,3.9,1.9,6.2
				l0,0c0.2,0.7-0.2,1.4-1,1.6c-0.3,0.1-0.6,0-0.9-0.1c-2.3-1-4.2-2.7-5.8-4.7c-1.5-2-2.7-4.4-3.3-6.9c-0.6-2.5-0.7-5.1-0.2-7.6
				c0.5-2.5,1.4-4.9,3-6.9c0.5-0.6,1.3-0.7,1.9-0.2C791.6,190.6,791.8,190.8,791.9,191.1L791.9,191.1z"/>
			<path class="st2" d="M742.3,196.9c-0.6,2.1-0.9,3.9-1.3,5.7c-0.4,1.8-0.8,3.4-1.3,5c-0.5,1.6-1.1,3.2-1.7,4.9
				c-0.6,1.7-1.4,3.4-2,5.5l0,0c-0.2,0.6,0.1,1.3,0.8,1.5c0.3,0.1,0.5,0.1,0.8,0c2.1-0.8,3.9-2.2,5.4-3.9c1.5-1.7,2.6-3.8,3.3-6
				c0.7-2.2,0.9-4.5,0.6-6.8c-0.3-2.2-1-4.4-2.3-6.3c-0.4-0.5-1.1-0.7-1.7-0.3C742.5,196.4,742.4,196.6,742.3,196.9L742.3,196.9z"/>
			<path class="st2" d="M779.8,205.5c0.9,0.8,1.5,1.6,1.9,2.5c0.5,0.9,0.8,1.8,1,2.7c0.2,0.9,0.3,1.9,0.3,2.9c0,1-0.2,2-0.6,3.1
				c-0.1,0.3-0.6,0.6-1.1,0.5c-0.2,0-0.3-0.1-0.4-0.2c-0.9-0.8-1.5-1.6-1.9-2.5c-0.5-0.9-0.8-1.8-1-2.7c-0.2-0.9-0.3-1.9-0.3-2.9
				c0-1,0.2-2,0.6-3.1c0.1-0.3,0.6-0.6,1.1-0.5C779.5,205.3,779.7,205.4,779.8,205.5z"/>
		</g>
		<g>
			<g>
				<g>
					<ellipse class="st4" cx="851.6" cy="249" rx="15.7" ry="24.2"/>
				</g>
				<g>
					<ellipse class="st4" cx="684.4" cy="249" rx="15.7" ry="24.2"/>
				</g>
			</g>
		</g>
		<g>
			<path class="st2" d="M798.6,182.4l3.1,13.2c1.7,7.2,9.4,11.4,16.6,9.1l53.3-17.2c2.8-0.9,5.8-0.9,8.6,0.1l32.3,11.3
				c3.8,1.3,6.9-3.2,4-6l-32.8-33.2c-3.4-3.4-8.5-4.8-13.2-3.4l-68,19.8C799.7,176.9,798,179.7,798.6,182.4z"/>
			<g>
				<path class="st5" d="M804.6,176.9l2.5,13.3c1.4,7.2,8.7,11.6,15.7,9.5l52.1-15.6c2.7-0.8,5.6-0.7,8.3,0.4l30.8,12.2
					c3.6,1.4,6.7-3,4.1-5.9l-30.6-34.1c-3.2-3.5-8.1-5-12.7-3.8l-66.5,17.8C805.8,171.5,804.1,174.2,804.6,176.9z"/>
				<path class="st6" d="M915.2,197c-0.4,0-0.7-0.1-1.1-0.3l-30.8-12.2c-2.6-1.1-5.6-1.2-8.3-0.4l-52.1,15.6
					c-7,2.1-14.4-2.3-15.7-9.5l-0.7-3.4c3.1,4.2,8.6,6.4,14,4.7l53.7-16.1c2.8-0.8,5.8-0.7,8.5,0.4L915.2,197z"/>
			</g>
		</g>
		<g>
			<path class="st2" d="M733.5,176.1l-2.4,13.4c-1.3,7.2-8.8,11.9-16.1,9.9l-54.1-14.4c-2.8-0.8-5.8-0.6-8.5,0.5l-31.7,13
				c-3.7,1.5-7-2.8-4.4-5.8l31.1-34.8c3.2-3.6,8.3-5.2,13-4.1l69,16.3C732.3,170.6,734,173.3,733.5,176.1z"/>
			<g>
				<path class="st5" d="M727.3,170.9l-1.8,13.4c-1,7.3-8.1,12.1-15.2,10.3l-52.9-12.9c-2.8-0.7-5.7-0.4-8.2,0.8L619,196.3
					c-3.6,1.6-6.9-2.7-4.4-5.7l28.8-35.7c3-3.7,7.8-5.4,12.4-4.4l67.3,14.4C725.9,165.5,727.7,168.1,727.3,170.9z"/>
				<path class="st6" d="M617.9,196.6c0.4,0,0.7-0.2,1.1-0.3l30.2-13.8c2.6-1.2,5.5-1.5,8.2-0.8l52.9,12.9
					c7.1,1.7,14.2-3.1,15.2-10.3l0.5-3.4c-2.8,4.4-8.3,6.8-13.7,5.5L657.7,173c-2.8-0.7-5.8-0.4-8.5,0.8L617.9,196.6z"/>
			</g>
		</g>
		<path class="st2" d="M735.5,294.5c0,0,9,33.1,32.5,29.9s24-24.2,24-24.2S766.3,314.6,735.5,294.5z"/>
		<path class="st2" d="M759.2,412.7c2.4-0.2,4.5-0.1,6.5-0.2c2,0,3.9-0.1,5.8-0.3c1.9-0.2,3.8-0.4,5.8-0.8c2-0.3,4.1-0.8,6.5-1l0,0
			c0.7-0.1,1.4,0.5,1.5,1.2c0,0.3,0,0.6-0.2,0.9c-1.4,2.2-3.3,3.8-5.5,5c-2.2,1.2-4.7,2-7.3,2.3c-2.6,0.2-5.2-0.1-7.6-0.9
			c-2.4-0.8-4.6-2.1-6.4-3.9c-0.5-0.5-0.5-1.4,0.1-1.9C758.6,412.8,758.9,412.7,759.2,412.7L759.2,412.7z"/>
		<linearGradient id="SVGID_6_" gradientUnits="userSpaceOnUse" x1="764.2551" y1="306.9654" x2="764.2551" y2="215.2691">
			<stop  offset="0" style="stop-color:#E57447"/>
			<stop  offset="0.9948" style="stop-color:#F2A87E"/>
		</linearGradient>
		<path class="st16" d="M796,298.6c-0.2-0.7-1-1.1-1.7-0.8l-0.1,0l-3.6,1.3l-1.8,0.6l-0.9,0.3c-0.3,0.1-0.6,0.2-0.9,0.2l-3.7,0.9
			c-0.6,0.1-1.2,0.3-1.8,0.4l-1.9,0.3c-1.2,0.2-2.5,0.4-3.7,0.6l-3.8,0.2c-1.2,0.1-2.5,0.1-3.8,0c-1.2-0.1-2.5,0-3.7-0.2l-3.7-0.4
			l-3.7-0.7c-2.4-0.6-4.8-1.3-7.1-2.2c-2.3-0.9-4.6-1.9-6.7-3.1c-1.1-0.6-2.1-1.2-3.1-1.9c-0.5-0.3-0.9-0.6-1.3-0.9l20.6-76.4
			c0.2-0.7-0.2-1.4-0.9-1.6c-0.7-0.2-1.5,0.2-1.7,0.9l-24.4,77.5c-0.3,1.1,0,2.4,0.9,3.1l0,0l0,0c0.4,0.3,0.6,0.5,0.9,0.7
			c0.3,0.2,0.6,0.4,0.9,0.6c0.6,0.4,1.2,0.7,1.8,1.1c1.2,0.7,2.4,1.3,3.6,1.9c2.5,1.1,5,2.2,7.6,3c2.6,0.8,5.2,1.5,7.9,2l4,0.6
			l4,0.3c1.3,0.1,2.7,0,4,0c1.3,0,2.7,0,4-0.2l4-0.5c1.3-0.2,2.6-0.5,3.9-0.8l2-0.4c0.7-0.1,1.3-0.4,1.9-0.6l3.8-1.2
			c0.3-0.1,0.6-0.2,0.9-0.3l0.9-0.4l1.8-0.8l3.7-1.5C795.9,300,796.2,299.3,796,298.6z"/>
		<path class="st2" d="M708.3,317.8c-1.3,1.4-2.5,2.5-3.6,3.6c-1.1,1.1-2.2,2.2-3.1,3.3c-1,1.1-1.9,2.3-2.9,3.5
			c-1,1.3-1.9,2.6-3.1,4l0,0c-0.4,0.4-1,0.5-1.5,0.1c-0.2-0.2-0.3-0.4-0.3-0.6c-0.4-2-0.1-3.9,0.4-5.8c0.6-1.9,1.6-3.7,3-5.2
			c1.3-1.5,3-2.8,4.8-3.6c1.8-0.8,3.7-1.3,5.7-1.2c0.6,0,1,0.5,1,1.1C708.6,317.4,708.5,317.6,708.3,317.8L708.3,317.8z"/>
		<path class="st2" d="M822.9,317.8c1.3,1.4,2.5,2.5,3.6,3.6c1.1,1.1,2.2,2.2,3.1,3.3c1,1.1,1.9,2.3,2.9,3.5c1,1.3,1.9,2.6,3.1,4
			l0,0c0.4,0.4,1,0.5,1.5,0.1c0.2-0.2,0.3-0.4,0.3-0.6c0.4-2,0.1-3.9-0.4-5.8c-0.6-1.9-1.6-3.7-3-5.2c-1.3-1.5-3-2.8-4.8-3.6
			c-1.8-0.8-3.7-1.3-5.7-1.2c-0.6,0-1,0.5-1,1.1C822.7,317.4,822.8,317.6,822.9,317.8L822.9,317.8z"/>
		<path class="st2" d="M794.9,407.4c1,0.7,1.6,1.4,2.2,2.2c0.6,0.8,1,1.7,1.3,2.6c0.3,0.9,0.5,1.8,0.6,2.8c0.1,1,0.1,2-0.3,3.1
			c-0.1,0.4-0.6,0.6-1,0.7c-0.2,0-0.3,0-0.5-0.1c-1-0.7-1.6-1.4-2.2-2.2c-0.6-0.8-1-1.7-1.3-2.6c-0.3-0.9-0.5-1.8-0.6-2.8
			c-0.1-1-0.1-2,0.3-3.1c0.1-0.4,0.6-0.6,1-0.7C794.6,407.3,794.8,407.3,794.9,407.4z"/>
		<g>
			<path class="st3" d="M835.7,361.8c0,13.1-7.5,23.4-21.6,29.6c-11.8,5.2-28.1,7.9-48.5,7.9s-36.7-2.6-48.5-7.9
				c-14.2-6.3-21.6-16.5-21.6-29.6c0-13.4,7.5-25.8,21.1-35.1c13.2-9,30.6-13.9,49.1-13.9c18.5,0,35.9,4.9,49.1,13.9
				C828.2,336,835.7,348.4,835.7,361.8z"/>
			<path class="st11" d="M832,361.8c0,25-29.8,33.8-66.5,33.8s-66.5-8.8-66.5-33.8c0-25,29.8-45.3,66.5-45.3S832,336.7,832,361.8z"
				/>
			<path class="st17" d="M825.2,379.5c-10.8,11.7-33.5,16.2-59.7,16.2c-18.7,0-35.6-2.3-47.6-7.8c5.2-14.9,28.4-26,56.2-26
				C796.5,361.7,815.8,368.9,825.2,379.5z"/>
			<path class="st12" d="M822.5,338.3c-19.7,9.8-94.1,9.8-113.8,0c11.7-13.1,32.8-21.9,56.9-21.9
				C789.7,316.5,810.8,325.2,822.5,338.3z"/>
			<path class="st13" d="M813.4,341.4c-23.8,5.8-72,5.8-95.8,0c4.3-14.1,16.5-21.4,47.9-21.4C796.9,320,809.2,327.2,813.4,341.4z"/>
		</g>
	</g>
	<g>
		<polygon class="st8" points="700.2,141.8 650.3,207.9 675.5,200.6 		"/>
		<polygon class="st9" points="700.2,141.8 654.7,187.7 650.3,207.9 		"/>
	</g>
</g>
<g>
	<g>
		<linearGradient id="SVGID_7_" gradientUnits="userSpaceOnUse" x1="768" y1="1024" x2="768" y2="512">
			<stop  offset="0.1" style="stop-color:#F2A87E"/>
			<stop  offset="0.5" style="stop-color:#F6C09C"/>
			<stop  offset="0.9" style="stop-color:#F8CCAB"/>
		</linearGradient>
		<rect x="512" y="512" class="st18" width="512" height="512"/>
	</g>
	<g class="st1">
		<image style="overflow:visible;" width="377" height="343" xlink:href="9C35071B.png"  transform="matrix(1 0 0 1 577 626)">
		</image>
	</g>
	<g>
		<path class="st3" d="M831.7,875.3c0,0,0,0.1-0.1,0.1c-8.5,17.2-18.2,28.9-29.3,35.8c-11.1,6.8-21.8,7.7-29.9,7.7
			c-2,0-4.2-0.1-6.9-0.2c-2.6,0.1-4.8,0.2-6.8,0.2c-8.1,0-18.8-0.9-29.9-7.7c-11.2-6.9-20.8-18.6-29.3-35.8c0,0,0-0.1,0-0.1
			c-7.3-15.9-9.2-25.5-6.2-32c1.7-3.7,4.9-6.3,9.5-7.6c3.6-1.2,8.2-1.8,15-1.8c5,0,10.8,0.3,17,0.6c7.6,0.4,16.1,0.8,25.2,0.8
			c1.9,0,3.8,0,5.6,0c0,0,0,0,0.1,0c0,0,0.1,0,0.1,0c1.8,0,3.7,0,5.6,0c9,0,17.6-0.4,25.2-0.8c6.2-0.3,12-0.6,17-0.6
			c6.8,0,11.4,0.5,15,1.8c4.6,1.3,7.8,3.9,9.5,7.6C840.9,849.8,839,859.3,831.7,875.3z"/>
		<g>
			<path class="st2" d="M794.6,706.7c-0.2,2.4-0.6,4.5-0.9,6.5c-0.3,2-0.5,3.9-0.6,5.8c-0.1,1.9-0.2,3.8-0.2,5.8
				c0,2,0.1,4.1-0.1,6.5l0,0c0,0.7-0.7,1.3-1.4,1.3c-0.3,0-0.6-0.1-0.8-0.3c-1.9-1.7-3.2-3.9-4.1-6.3c-0.8-2.4-1.2-5-1-7.6
				c0.2-2.6,0.9-5.1,2.1-7.4c1.2-2.2,2.8-4.2,4.9-5.6c0.6-0.4,1.4-0.2,1.9,0.4C794.5,706.1,794.6,706.4,794.6,706.7L794.6,706.7z"/>
			<path class="st2" d="M745.6,697.2c-1.2,1.8-2.1,3.4-3,5c-0.9,1.5-1.8,3-2.8,4.4c-1,1.4-2,2.7-3.1,4.1c-1.1,1.4-2.3,2.8-3.6,4.6
				l0,0c-0.4,0.5-0.3,1.3,0.3,1.7c0.2,0.2,0.5,0.2,0.8,0.2c2.3-0.1,4.4-0.9,6.3-2.1c1.9-1.2,3.6-2.8,4.9-4.7
				c1.3-1.9,2.2-4.1,2.6-6.3c0.4-2.2,0.4-4.5-0.3-6.7c-0.2-0.6-0.9-1-1.5-0.8C745.9,696.8,745.7,696.9,745.6,697.2L745.6,697.2z"/>
			<path class="st2" d="M778.7,716.7c0.6,1,0.9,2,1.1,2.9c0.2,1,0.2,1.9,0.1,2.9c-0.1,0.9-0.3,1.9-0.6,2.8c-0.3,0.9-0.8,1.9-1.5,2.7
				c-0.2,0.3-0.8,0.4-1.2,0.2c-0.2-0.1-0.3-0.2-0.4-0.3c-0.6-1-0.9-2-1.1-2.9c-0.2-1-0.2-1.9-0.1-2.9c0.1-0.9,0.3-1.9,0.6-2.8
				c0.3-0.9,0.8-1.9,1.5-2.7c0.2-0.3,0.8-0.4,1.2-0.2C778.5,716.5,778.6,716.6,778.7,716.7z"/>
		</g>
		<g>
			<path class="st2" d="M797.9,709.1l2.4,13.3c1.3,7.2,8.8,11.8,16.1,9.9l54.1-14.5c2.8-0.8,5.8-0.6,8.5,0.5l31.7,12.9
				c3.7,1.5,7-2.9,4.3-5.8l-31.1-34.8c-3.2-3.6-8.3-5.2-13-4L802,703C799.1,703.7,797.4,706.3,797.9,709.1z"/>
			<g>
				<path class="st5" d="M804.1,703.9l1.9,13.4c1,7.3,8.1,12.1,15.2,10.3l52.8-13c2.8-0.7,5.7-0.4,8.2,0.8l30.2,13.8
					c3.6,1.6,6.9-2.7,4.4-5.7l-28.8-35.6c-3-3.7-7.8-5.4-12.4-4.4l-67.3,14.5C805.5,698.5,803.7,701.1,804.1,703.9z"/>
				<path class="st6" d="M913.5,729.5c-0.4,0-0.7-0.2-1.1-0.3l-30.2-13.8c-2.6-1.2-5.5-1.4-8.2-0.8l-52.8,13
					c-7.1,1.8-14.2-3-15.2-10.3l-0.5-3.4c2.8,4.4,8.3,6.8,13.7,5.4l54.5-13.4c2.8-0.7,5.8-0.4,8.5,0.8L913.5,729.5z"/>
			</g>
		</g>
		<g>
			<path class="st2" d="M733.5,688.1l-2.4,13.4c-1.3,7.2-8.8,11.9-16.1,9.9l-54.1-14.4c-2.8-0.8-5.8-0.6-8.5,0.5l-31.7,13
				c-3.7,1.5-7-2.8-4.4-5.8l31.1-34.8c3.2-3.6,8.3-5.2,13-4.1l69,16.3C732.3,682.6,734,685.3,733.5,688.1z"/>
			<g>
				<path class="st5" d="M727.3,682.9l-1.8,13.4c-1,7.3-8.1,12.1-15.2,10.3l-52.9-12.9c-2.8-0.7-5.7-0.4-8.2,0.8L619,708.3
					c-3.6,1.6-6.9-2.7-4.4-5.7l28.8-35.7c3-3.7,7.8-5.4,12.4-4.4l67.3,14.4C725.9,677.5,727.7,680.1,727.3,682.9z"/>
				<path class="st6" d="M617.9,708.6c0.4,0,0.7-0.2,1.1-0.3l30.2-13.8c2.6-1.2,5.5-1.5,8.2-0.8l52.9,12.9
					c7.1,1.7,14.2-3.1,15.2-10.3l0.5-3.4c-2.8,4.4-8.3,6.8-13.7,5.5L657.7,685c-2.8-0.7-5.8-0.4-8.5,0.8L617.9,708.6z"/>
			</g>
		</g>
		<path class="st2" d="M735.5,806.5c0,0,9,33.1,32.5,29.9s24-24.2,24-24.2S766.3,826.6,735.5,806.5z"/>
		<path class="st2" d="M765.1,925.4c2.4-0.2,4.5-0.1,6.5-0.2c2,0,3.9-0.1,5.8-0.3c1.9-0.2,3.8-0.4,5.8-0.8c2-0.3,4.1-0.8,6.5-1l0,0
			c0.7-0.1,1.4,0.5,1.5,1.2c0,0.3,0,0.6-0.2,0.9c-1.4,2.2-3.3,3.8-5.5,5c-2.2,1.2-4.7,2-7.3,2.3c-2.6,0.2-5.2-0.1-7.6-0.9
			c-2.4-0.8-4.6-2.1-6.4-3.9c-0.5-0.5-0.5-1.4,0.1-1.9C764.4,925.5,764.7,925.4,765.1,925.4L765.1,925.4z"/>
		<linearGradient id="SVGID_8_" gradientUnits="userSpaceOnUse" x1="764.2551" y1="818.9653" x2="764.2551" y2="727.2691">
			<stop  offset="0" style="stop-color:#E57447"/>
			<stop  offset="0.9948" style="stop-color:#F2A87E"/>
		</linearGradient>
		<path class="st19" d="M796,810.6c-0.2-0.7-1-1.1-1.7-0.8l-0.1,0l-3.6,1.3l-1.8,0.6l-0.9,0.3c-0.3,0.1-0.6,0.2-0.9,0.2l-3.7,0.9
			c-0.6,0.1-1.2,0.3-1.8,0.4l-1.9,0.3c-1.2,0.2-2.5,0.4-3.7,0.6l-3.8,0.2c-1.2,0.1-2.5,0.1-3.8,0c-1.2-0.1-2.5,0-3.7-0.2l-3.7-0.4
			l-3.7-0.7c-2.4-0.6-4.8-1.3-7.1-2.2c-2.3-0.9-4.6-1.9-6.7-3.1c-1.1-0.6-2.1-1.2-3.1-1.9c-0.5-0.3-0.9-0.6-1.3-0.9l20.6-76.4
			c0.2-0.7-0.2-1.4-0.9-1.6c-0.7-0.2-1.5,0.2-1.7,0.9l-24.4,77.5c-0.3,1.1,0,2.4,0.9,3.1l0,0l0,0c0.4,0.3,0.6,0.5,0.9,0.7
			c0.3,0.2,0.6,0.4,0.9,0.6c0.6,0.4,1.2,0.7,1.8,1.1c1.2,0.7,2.4,1.3,3.6,1.9c2.5,1.1,5,2.2,7.6,3c2.6,0.8,5.2,1.5,7.9,2l4,0.6
			l4,0.3c1.3,0.1,2.7,0,4,0c1.3,0,2.7,0,4-0.2l4-0.5c1.3-0.2,2.6-0.5,3.9-0.8l2-0.4c0.7-0.1,1.3-0.4,1.9-0.6l3.8-1.2
			c0.3-0.1,0.6-0.2,0.9-0.3l0.9-0.4l1.8-0.8l3.7-1.5C795.9,812,796.2,811.3,796,810.6z"/>
		<path class="st2" d="M688.3,829.8c-1.3,1.4-2.5,2.5-3.6,3.6c-1.1,1.1-2.2,2.2-3.1,3.3c-1,1.1-1.9,2.3-2.9,3.5
			c-1,1.3-1.9,2.6-3.1,4l0,0c-0.4,0.4-1,0.5-1.5,0.1c-0.2-0.2-0.3-0.4-0.3-0.6c-0.4-2-0.1-3.9,0.4-5.8c0.6-1.9,1.6-3.7,3-5.2
			c1.3-1.5,3-2.8,4.8-3.6c1.8-0.8,3.7-1.3,5.7-1.2c0.6,0,1,0.5,1,1.1C688.6,829.4,688.5,829.6,688.3,829.8L688.3,829.8z"/>
		<path class="st2" d="M842.9,829.8c1.3,1.4,2.5,2.5,3.6,3.6c1.1,1.1,2.2,2.2,3.1,3.3c1,1.1,1.9,2.3,2.9,3.5c1,1.3,1.9,2.6,3.1,4
			l0,0c0.4,0.4,1,0.5,1.5,0.1c0.2-0.2,0.3-0.4,0.3-0.6c0.4-2,0.1-3.9-0.4-5.8c-0.6-1.9-1.6-3.7-3-5.2c-1.3-1.5-3-2.8-4.8-3.6
			c-1.8-0.8-3.7-1.3-5.7-1.2c-0.6,0-1,0.5-1,1.1C842.7,829.4,842.8,829.6,842.9,829.8L842.9,829.8z"/>
		<g>
			<path class="st11" d="M828.1,873.6c-20.3,40.7-43,42.1-62.5,41.1c-19.5,1.1-42.2-0.4-62.5-41.1c-9.1-19.8-10.4-30.9,0.9-34.1
				c10.7-3.7,34,0.4,61.6-0.2c27.7,0.6,50.9-3.5,61.6,0.2C838.5,842.7,837.2,853.8,828.1,873.6z"/>
			<path class="st17" d="M810.2,899.7c-15.2,15.2-30.7,15.7-44.7,14.9c-10.2,0.6-21.3,0.4-32.5-5.7c-0.6-14.7,15.9-18.8,40.8-20.1
				C794.6,887.6,809.1,888.5,810.2,899.7z"/>
			<g>
				<path class="st12" d="M834.2,844.8c-14.6,13.9-41.6,27.2-68.7,26.6c-27,0.6-54.1-12.8-68.7-26.6c4.3-11,32-5.3,68.7-5.5
					C802.3,839.5,829.9,833.7,834.2,844.8z"/>
				<path class="st13" d="M822.1,854.2c-30.3,22.7-82.7,22.7-113,0c-3.1-18.1,10.4-13,56.5-11C811.7,841.2,825.2,836.1,822.1,854.2z
					"/>
			</g>
		</g>
		<g>
			<g>
				<path class="st4" d="M815.3,771.1c2.7-6.8,7.4-12.6,13.5-17.2c0.8-0.6,1.5-1.2,2.4-1.7l2.6-1.5c1.7-1.1,3.6-1.7,5.5-2.4
					c0.5-0.2,1-0.4,1.4-0.5l1.5-0.4l3-0.7c2.1-0.4,4.2-0.4,6.3-0.6c2.1,0.1,4.2,0.2,6.3,0.6l3,0.7l1.5,0.4c0.5,0.2,1,0.3,1.4,0.5
					c1.9,0.8,3.8,1.4,5.5,2.4c0.9,0.5,1.7,1,2.6,1.5c0.9,0.5,1.6,1.1,2.4,1.7c6.1,4.6,10.8,10.4,13.5,17.2c0.7,1.8-0.1,3.8-1.9,4.5
					c-0.8,0.3-1.7,0.3-2.5,0l-0.1-0.1c-6.5-2.4-12-5-17.2-6.8c-5.2-1.8-9.9-2.6-14.5-2.7c-4.5,0.1-9.2,0.9-14.5,2.7
					c-5.3,1.7-10.7,4.3-17.2,6.7l-0.1,0c-1.8,0.7-3.8-0.2-4.5-2C815,772.8,815,771.9,815.3,771.1z"/>
			</g>
			<g>
				<path class="st4" d="M648.2,771.1c2.7-6.8,7.4-12.6,13.5-17.2c0.8-0.6,1.5-1.2,2.4-1.7l2.6-1.5c1.7-1.1,3.6-1.7,5.5-2.4
					c0.5-0.2,1-0.4,1.4-0.5l1.5-0.4l3-0.7c2.1-0.4,4.2-0.4,6.3-0.6c2.1,0.1,4.2,0.2,6.3,0.6l3,0.7l1.5,0.4c0.5,0.2,1,0.3,1.4,0.5
					c1.9,0.8,3.8,1.4,5.5,2.4c0.9,0.5,1.7,1,2.6,1.5c0.9,0.5,1.6,1.1,2.4,1.7c6.1,4.6,10.8,10.4,13.5,17.2c0.7,1.8-0.1,3.8-1.9,4.5
					c-0.8,0.3-1.7,0.3-2.5,0l-0.1-0.1c-6.5-2.4-12-5-17.2-6.8c-5.2-1.8-9.9-2.6-14.5-2.7c-4.5,0.1-9.2,0.9-14.5,2.7
					c-5.3,1.7-10.7,4.3-17.2,6.7l-0.1,0c-1.8,0.7-3.8-0.2-4.5-2C647.8,772.8,647.8,771.9,648.2,771.1z"/>
			</g>
		</g>
	</g>
	<g>
		<polygon class="st8" points="700.2,653.8 650.3,719.9 675.5,712.6 		"/>
		<polygon class="st9" points="700.2,653.8 654.7,699.7 650.3,719.9 		"/>
	</g>
</g>
</svg>
